# xmcd
#
# Track frame offsets:
#	150
#	16606
#	33343
#	44884
#	57944
#	75772
#	94692
#	107854
#
# Disc length: 1657 seconds
# Revision: 0
# Processed by: cddbd v1.5.2PL0 Copyright (c) Steve Scherf et al.
# Submitted via: dBpowerAMP V12.0
#
DISCID=56067708
DTITLE=Various Artist - The Distance
DYEAR=2012
DGENRE=Country
TTITLE0=Carrie Hassler - Luxury Liner
TTITLE1=Carrie Hassler - All I Have To Do Is Breathe
TTITLE2=Carrie Hassler - Catch My Breath
TTITLE3=Carrie Hassler - Keep Your Memory Warm
TTITLE4=Carrie Hassler and Steve Gulley - Eugene and Diane
TTITLE5=Carrie Hassler - Give My Love
TTITLE6=Carrie Hassler - Get Me Over You
TTITLE7=Carrie Hassler - The Distance
EXTD=
EXTT0=
EXTT1=
EXTT2=
EXTT3=
EXTT4=
EXTT5=
EXTT6=
EXTT7=
PLAYORDER=
